HIERARCHY
ROOT Hips
{
  OFFSET 52.3377 86.7523 27.6965
  CHANNELS 6 Xposition Yposition Zposition Zrotation Xrotation Yrotation
  JOINT spine
  {
    OFFSET 0 6.84637 0.3937
    CHANNELS 3 Zrotation Xrotation Yrotation
    JOINT spine1
    {
      OFFSET 0 9.49621 0
      CHANNELS 3 Zrotation Xrotation Yrotation
      JOINT spine2
      {
        OFFSET 0 9.09909 0
        CHANNELS 3 Zrotation Xrotation Yrotation
        JOINT Neck
        {
          OFFSET 0 23.3612 1.11378
          CHANNELS 3 Zrotation Xrotation Yrotation
          JOINT Head
          {
            OFFSET 0 7.05802 0
            CHANNELS 3 Zrotation Xrotation Yrotation
            End Site
            {
              OFFSET 0 17.0844 -5.63419
            }
          }
        }
        JOINT RightShoulder
        {
          OFFSET -3.83136 9.82631 -0.533491
          CHANNELS 3 Zrotation Xrotation Yrotation
          JOINT RightArm
          {
            OFFSET 0 12.8881 0
            CHANNELS 3 Zrotation Xrotation Yrotation
            JOINT RightArmRoll
            {
              OFFSET 0 6.50617 0
              CHANNELS 3 Zrotation Xrotation Yrotation
              JOINT RightForeArm
              {
                OFFSET 0 18.9501 0
                CHANNELS 3 Zrotation Xrotation Yrotation
                JOINT RightForeArmRoll
                {
                  OFFSET 0 7.30092 0
                  CHANNELS 3 Zrotation Xrotation Yrotation
                  JOINT RightHand
                  {
                    OFFSET 0 14.6514 0
                    CHANNELS 3 Zrotation Xrotation Yrotation
                    End Site
                    {
                      OFFSET 0 0 0
                    }
                  }
                }
              }
            }
          }
        }
        JOINT LeftShoulder
        {
          OFFSET 3.83136 9.82631 -0.533491
          CHANNELS 3 Zrotation Xrotation Yrotation
          JOINT LeftArm
          {
            OFFSET 0 12.8881 0
            CHANNELS 3 Zrotation Xrotation Yrotation
            JOINT LeftArmRoll
            {
              OFFSET 0 6.50617 0
              CHANNELS 3 Zrotation Xrotation Yrotation
              JOINT LeftForeArm
              {
                OFFSET 0 18.9501 0
                CHANNELS 3 Zrotation Xrotation Yrotation
                JOINT LeftForeArmRoll
                {
                  OFFSET 0 7.30092 0
                  CHANNELS 3 Zrotation Xrotation Yrotation
                  JOINT LeftHand
                  {
                    OFFSET 0 14.6514 0
                    CHANNELS 3 Zrotation Xrotation Yrotation
                    End Site
                    {
                      OFFSET 0 0 0
                    }
                  }
                }
              }
            }
          }
        }
      }
    }
  }
  JOINT RightUpLeg
  {
    OFFSET -6.06837 -1.11278 -0.933477
    CHANNELS 3 Zrotation Xrotation Yrotation
    JOINT RightUpLegRoll
    {
      OFFSET 0 17.1796 0
      CHANNELS 3 Zrotation Xrotation Yrotation
      JOINT RightLeg
      {
        OFFSET 0 -21.2743 0
        CHANNELS 3 Zrotation Xrotation Yrotation
        JOINT RightLegRoll
        {
          OFFSET 0 21.3439 0
          CHANNELS 3 Zrotation Xrotation Yrotation
          JOINT RightFoot
          {
            OFFSET 0 17.7652 0
            CHANNELS 3 Zrotation Xrotation Yrotation
            JOINT RightToeBase
            {
              OFFSET 0 14.8508 0
              CHANNELS 3 Zrotation Xrotation Yrotation
              End Site
              {
                OFFSET 0.0062947 7.19213 -0.829005
              }
            }
          }
        }
      }
    }
  }
  JOINT LeftUpLeg
  {
    OFFSET 6.06837 -1.11278 -0.933477
    CHANNELS 3 Zrotation Xrotation Yrotation
    JOINT LeftUpLegRoll
    {
      OFFSET 0 17.1797 0
      CHANNELS 3 Zrotation Xrotation Yrotation
      JOINT LeftLeg
      {
        OFFSET 0 21.2742 0
        CHANNELS 3 Zrotation Xrotation Yrotation
        JOINT LeftLegRoll
        {
          OFFSET 0 21.5412 0
          CHANNELS 3 Zrotation Xrotation Yrotation
          JOINT LeftFoot
          {
            OFFSET 0 17.5679 0
            CHANNELS 3 Zrotation Xrotation Yrotation
            JOINT LeftToeBase
            {
              OFFSET 0 14.8508 0
              CHANNELS 3 Zrotation Xrotation Yrotation
              End Site
              {
                OFFSET -0.0282102 7.19213 -0.829005
              }
            }
          }
        }
      }
    }
  }
}
MOTION
Frames: 6
Frame Time: 0.00208333
54.142 70.2953 9.07975 7.93217 37.4832 -9.3607 -0.240921 0.232246 0.598284 -0.491523 4.46474 1.23093 -0.507163 6.10964 1.24069 -20.3647 -13.6741 -1.061 15.6994 11.5823 -2.62933 42.0868 -4.99388 -1.86615 137.309 43.3112 -49.377 2.59279e-006 8.62812e-006 2.07828e-006 34.1391 14.8484 -0.629891 -6.77928e-006 -8.0074e-006 -3 8.02943 -4.95125 0.697434 -65.5449 -8.48019 5.39313 -119.397 53.2412 34.0611 -1.19151e-006 7.71617e-008 3.21826e-006 -42.1109 4.91957 -1.93892 -7.33054e-006 3.50671e-006 2.99403 -8.03026 -4.9516 -0.697807 64.4771 80.2486 113.108 -180 1.52585e-005 179.619 165.167 64.3796 -171.052 -3.12544e-007 1.71389e-006 0.880062 -23.915 72.1 23.8947 8.13649 25.2327 -3.48774 -86.3289 79.4385 -95.6071 4.5067e-006 -1.99009e-005 -0.389952 -27.7149 -65.1343 -17.5783 3.37344e-006 -1.21137e-005 0.624222 35.651 75.8815 -31.7768 -8.13649 25.2327 3.48773 
54.143 70.398 9.13598 7.90229 37.4218 -9.32793 -0.233341 0.223881 0.598047 -0.476197 4.4481 1.22902 -0.491786 6.093 1.23852 -20.3819 -13.6958 -1.07746 15.7115 11.5434 -2.63732 42.1668 -4.97097 -1.85306 137.354 43.4361 -49.0412 2.59279e-006 8.62812e-006 2.07828e-006 34.1541 14.2962 -0.502952 -6.77928e-006 -8.0074e-006 -3 8.02943 -4.95125 0.697434 -65.6634 -8.47343 5.39176 -119.446 53.3396 33.6935 -1.19151e-006 7.71617e-008 3.21826e-006 -42.0197 4.46589 -2.06819 -7.33054e-006 3.50671e-006 2.99538 -8.03026 -4.9516 -0.697807 65.8195 80.3312 111.751 -180 1.52585e-005 179.62 165.195 64.1924 -171.1 -3.12544e-007 1.71389e-006 0.872763 -23.9055 72.0901 23.8827 8.13649 25.2327 -3.48774 -87.6173 79.4696 -94.2826 4.5067e-006 -1.99009e-005 -0.387738 -27.6113 -64.934 -17.4678 3.37344e-006 -1.21137e-005 0.63216 35.6067 75.8588 -31.7225 -8.13649 25.2327 3.48773 
54.1344 70.4944 9.19776 7.87361 37.3598 -9.29586 -0.226322 0.215631 0.597827 -0.462003 4.43168 1.22703 -0.477542 6.07659 1.23628 -20.3938 -13.7232 -1.09313 15.7198 11.5096 -2.64374 42.249 -4.9488 -1.84083 137.398 43.5586 -48.708 2.59279e-006 8.62812e-006 2.07828e-006 34.1669 13.7576 -0.380112 -6.77928e-006 -8.0074e-006 -3 8.02943 -4.95125 0.697434 -65.7771 -8.46784 5.39094 -119.498 53.4339 33.3292 -1.19151e-006 7.71617e-008 3.21826e-006 -41.926 4.04313 -2.1714 -7.33054e-006 3.50671e-006 2.99735 -8.03026 -4.9516 -0.697807 67.1847 80.4085 110.371 -180 1.52585e-005 179.62 165.225 64.0047 -171.148 -3.12544e-007 1.71389e-006 0.865615 -23.8948 72.0794 23.8694 8.13649 25.2327 -3.48774 -88.9171 79.4948 -92.9479 4.5067e-006 -1.99009e-005 -0.385553 -27.509 -64.7324 -17.358 3.37344e-006 -1.21137e-005 0.639967 35.5608 75.835 -31.6661 -8.13649 25.2327 3.48773 
54.1257 70.588 9.25884 7.84632 37.2973 -9.26461 -0.219953 0.207522 0.597624 -0.449121 4.41554 1.22493 -0.464612 6.06045 1.23396 -20.3995 -13.7573 -1.10789 15.7235 11.482 -2.64834 42.3339 -4.92751 -1.82961 137.441 43.6785 -48.3778 2.59279e-006 8.62812e-006 2.07828e-006 34.1776 13.2345 -0.26211 -6.77928e-006 -8.0074e-006 -3 8.02943 -4.95125 0.697434 -65.8852 -8.46358 5.39074 -119.556 53.5235 32.9686 -1.19151e-006 7.71617e-008 3.21826e-006 -41.8295 3.65455 -2.2455 -7.33054e-006 3.50671e-006 3 -8.03026 -4.9516 -0.697807 68.5708 80.4802 108.97 -180 1.52585e-005 179.621 165.256 63.8164 -171.196 -3.12544e-007 1.71389e-006 0.858638 -23.8828 72.0679 23.8547 8.13649 25.2327 -3.48774 -90.2265 79.5141 -91.605 4.5067e-006 -1.99009e-005 -0.383404 -27.4084 -64.5294 -17.249 3.37344e-006 -1.21137e-005 0.647655 35.5131 75.8101 -31.6073 -8.13649 25.2327 3.48773 
54.12 70.6906 9.3223 7.82054 37.2344 -9.23422 -0.214223 0.19948 0.597346 -0.437524 4.39953 1.22243 -0.452963 6.04444 1.23126 -20.3997 -13.7978 -1.12174 15.723 11.4595 -2.6511 42.4207 -4.9067 -1.81902 137.484 43.7963 -48.0517 2.59279e-006 8.62812e-006 2.07828e-006 34.1843 12.724 -0.146176 -6.77928e-006 -8.0074e-006 -2.99995 8.02943 -4.95125 0.697434 -65.9894 -8.46112 5.39145 -119.616 53.6099 32.6117 -1.19151e-006 7.71617e-008 3.21826e-006 -41.7271 3.29729 -2.29216 -7.33054e-006 3.50671e-006 3.00331 -8.03026 -4.9516 -0.697807 69.9756 80.5459 107.55 -180 1.52585e-005 179.622 165.288 63.6275 -171.246 -3.12544e-007 1.71389e-006 0.851823 -23.8696 72.0554 23.8386 8.13649 25.2327 -3.48774 -91.5425 79.5276 -90.2567 4.5067e-006 -1.99009e-005 -0.381263 -27.3096 -64.3249 -17.1409 3.37344e-006 -1.21137e-005 0.655281 35.4636 75.7841 -31.546 -8.13649 25.2327 3.48773 
54.1166 70.7909 9.37495 7.79612 37.1714 -9.20457 -0.209022 0.191421 0.596929 -0.426982 4.38347 1.21932 -0.442364 6.02839 1.22797 -20.396 -13.843 -1.13481 15.7192 11.4403 -2.65229 42.5085 -4.88586 -1.80855 137.531 43.9125 -47.7299 2.59279e-006 8.62812e-006 2.07828e-006 34.1856 12.2217 -0.0293442 -6.77928e-006 -8.0074e-006 -2.99984 8.02943 -4.95125 0.697434 -66.0922 -8.46059 5.39318 -119.677 53.6946 32.2578 -1.19151e-006 7.71617e-008 3.21826e-006 -41.6158 2.96542 -2.31619 -7.33054e-006 3.50671e-006 3.0072 -8.03026 -4.9516 -0.697807 71.3976 80.6055 106.113 -180 1.52585e-005 179.623 165.321 63.4381 -171.296 -3.12544e-007 1.71389e-006 0.845146 -23.8552 72.0421 23.8211 8.13649 25.2327 -3.48774 -92.8628 79.5354 -88.905 4.5067e-006 -1.99009e-005 -0.379109 -27.2126 -64.1189 -17.0341 3.37344e-006 -1.21137e-005 0.662873 35.4122 75.7569 -31.4824 -8.13649 25.2327 3.48773 
